<svg xmlns="http://www.w3.org/2000/svg" viewBox="0 0 320 200" width="320" height="200">
  <rect width="320" height="200" rx="20" fill="#f3ece1"/>
  <!-- accents -->
  <circle cx="38" cy="42" r="6" fill="#f3b45f"/>
  <circle cx="282" cy="46" r="5" fill="#cfe7dd"/>
  <circle cx="264" cy="30" r="3" fill="#f3b45f"/>
  <!-- ground -->
  <ellipse cx="160" cy="172" rx="124" ry="12" fill="#e4d8c8"/>
  <!-- small bank in the background -->
  <path d="M54 96 90 72l36 24z" fill="#cfe7dd"/>
  <circle cx="90" cy="88" r="4" fill="#fffaf3"/>
  <rect x="58" y="96" width="64" height="6" rx="2" fill="#cfe7dd"/>
  <rect x="62" y="102" width="56" height="44" fill="#cfe7dd"/>
  <rect x="66" y="104" width="7" height="40" rx="2" fill="#fffaf3"/>
  <rect x="80" y="104" width="7" height="40" rx="2" fill="#fffaf3"/>
  <rect x="94" y="104" width="7" height="40" rx="2" fill="#fffaf3"/>
  <rect x="108" y="104" width="7" height="40" rx="2" fill="#fffaf3"/>
  <rect x="56" y="144" width="68" height="6" rx="2" fill="#cfe7dd"/>
  <rect x="52" y="150" width="76" height="6" rx="2" fill="#cfe7dd"/>
  <!-- house -->
  <rect x="128" y="102" width="88" height="68" rx="6" fill="#0a4c3a"/>
  <rect x="128" y="96" width="88" height="68" rx="6" fill="#0f6b52"/>
  <rect x="190" y="60" width="12" height="26" rx="2" fill="#8a3d14"/>
  <path d="M116 104 172 58l56 46z" fill="#8a3d14"/>
  <path d="M116 100 172 54l56 46z" fill="#b3521f"/>
  <rect x="138" y="110" width="20" height="18" rx="3" fill="#fffaf3"/>
  <rect x="186" y="110" width="20" height="18" rx="3" fill="#fffaf3"/>
  <path d="M148 110v18M138 119h20M196 110v18M186 119h20" stroke="#e4d8c8" stroke-width="3" stroke-linecap="round"/>
  <rect x="159" y="128" width="26" height="36" rx="4" fill="#f3b45f"/>
  <circle cx="179" cy="147" r="2" fill="#8a3d14"/>
  <!-- string from the roof -->
  <path d="M224 99q16-2 28 13" stroke="#6b5a48" stroke-width="3" stroke-linecap="round" fill="none"/>
  <!-- price tag, swinging a little -->
  <g transform="rotate(-10 252 113)">
    <path d="M232 122 252 106l20 16v36a4 4 0 0 1-4 4h-32a4 4 0 0 1-4-4z" fill="#c98f3e"/>
    <path d="M232 118 252 102l20 16v36a4 4 0 0 1-4 4h-32a4 4 0 0 1-4-4z" fill="#f3b45f"/>
    <circle cx="252" cy="113" r="4" fill="#f3ece1"/>
    <path d="M261 129a11 11 0 1 0 0 18M242 135h13M242 141h13" stroke="#8a3d14" stroke-width="3" stroke-linecap="round" fill="none"/>
  </g>
</svg>
