<svg xmlns="http://www.w3.org/2000/svg" viewBox="0 0 320 200" width="320" height="200">
  <rect width="320" height="200" rx="20" fill="#f3ece1"/>
  <!-- accents -->
  <circle cx="38" cy="48" r="6" fill="#f3b45f"/>
  <circle cx="284" cy="42" r="5" fill="#cfe7dd"/>
  <circle cx="264" cy="28" r="3" fill="#f3b45f"/>
  <circle cx="36" cy="140" r="4" fill="#cfe7dd"/>
  <!-- ground -->
  <ellipse cx="162" cy="170" rx="124" ry="12" fill="#e4d8c8"/>
  <!-- calendar -->
  <rect x="66" y="55" width="140" height="110" rx="10" fill="#e4d8c8"/>
  <rect x="66" y="50" width="140" height="110" rx="10" fill="#fffaf3"/>
  <path d="M76 50h120a10 10 0 0 1 10 10v16H66V60a10 10 0 0 1 10-10z" fill="#b3521f"/>
  <rect x="92" y="40" width="8" height="20" rx="4" fill="#6b5a48"/>
  <rect x="172" y="40" width="8" height="20" rx="4" fill="#6b5a48"/>
  <!-- days -->
  <rect x="76" y="86" width="24" height="18" rx="4" fill="#efe2d1"/>
  <rect x="108" y="86" width="24" height="18" rx="4" fill="#efe2d1"/>
  <rect x="140" y="86" width="24" height="18" rx="4" fill="#efe2d1"/>
  <rect x="172" y="86" width="24" height="18" rx="4" fill="#efe2d1"/>
  <rect x="76" y="110" width="24" height="18" rx="4" fill="#efe2d1"/>
  <rect x="140" y="110" width="24" height="18" rx="4" fill="#efe2d1"/>
  <rect x="172" y="110" width="24" height="18" rx="4" fill="#efe2d1"/>
  <rect x="76" y="134" width="24" height="18" rx="4" fill="#efe2d1"/>
  <rect x="108" y="134" width="24" height="18" rx="4" fill="#efe2d1"/>
  <rect x="140" y="134" width="24" height="18" rx="4" fill="#efe2d1"/>
  <!-- highlighted viewing day with a house -->
  <rect x="102" y="104" width="36" height="34" rx="7" fill="#0a4c3a"/>
  <rect x="102" y="100" width="36" height="34" rx="7" fill="#0f6b52"/>
  <path d="M106 118 120 106l14 12z" fill="#fffaf3"/>
  <rect x="111" y="116" width="18" height="12" rx="1" fill="#fffaf3"/>
  <rect x="117" y="120" width="6" height="8" rx="1" fill="#0f6b52"/>
  <!-- alarm clock -->
  <path d="M262 98l6-4M257 88l3-6M263 109h7M226 94v-6" stroke="#c98f3e" stroke-width="3" stroke-linecap="round"/>
  <circle cx="206" cy="106" r="10" fill="#b3521f"/>
  <circle cx="246" cy="106" r="10" fill="#b3521f"/>
  <path d="M210 158l-5 7M242 158l5 7" stroke="#8a3d14" stroke-width="4" stroke-linecap="round"/>
  <circle cx="226" cy="135" r="28" fill="#c98f3e"/>
  <circle cx="226" cy="130" r="28" fill="#f3b45f"/>
  <circle cx="226" cy="130" r="20" fill="#fffaf3"/>
  <path d="M226 115v2M226 143v2M211 130h2M239 130h2" stroke="#e4d8c8" stroke-width="3" stroke-linecap="round"/>
  <path d="M226 130v-11M226 130l8 5" stroke="#6b5a48" stroke-width="3" stroke-linecap="round"/>
  <circle cx="226" cy="130" r="3" fill="#b3521f"/>
</svg>
