<svg xmlns="http://www.w3.org/2000/svg" viewBox="0 0 320 200" width="320" height="200">
  <rect width="320" height="200" rx="20" fill="#f3ece1"/>
  <!-- accents -->
  <circle cx="36" cy="38" r="5" fill="#f3b45f"/>
  <circle cx="288" cy="40" r="5" fill="#cfe7dd"/>
  <circle cx="270" cy="26" r="3" fill="#f3b45f"/>
  <!-- ground -->
  <ellipse cx="160" cy="168" rx="132" ry="12" fill="#e4d8c8"/>
  <!-- light bulb (main subject) -->
  <path d="M160 40v-10M124 52l-7-6M196 52l7-6" stroke="#f3b45f" stroke-width="4" stroke-linecap="round"/>
  <circle cx="160" cy="87" r="34" fill="#c98f3e"/>
  <path d="M142 107l6 22h24l6-22z" fill="#c98f3e"/>
  <circle cx="160" cy="82" r="34" fill="#f3b45f"/>
  <path d="M142 102l6 22h24l6-22z" fill="#f3b45f"/>
  <circle cx="148" cy="70" r="7" fill="#fdf2e4"/>
  <rect x="146" y="126" width="28" height="28" rx="5" fill="#2c2118"/>
  <rect x="146" y="122" width="28" height="28" rx="5" fill="#6b5a48"/>
  <path d="M152 131h16M152 140h16" stroke="#e4d8c8" stroke-width="3" stroke-linecap="round"/>
  <path d="M152 150h16l-4 9h-8z" fill="#2c2118"/>
  <!-- wifi signal -->
  <path d="M70 152a16 16 0 0 1 24 0M61 144a28 28 0 0 1 42 0M52 136a40 40 0 0 1 60 0" fill="none" stroke="#8a3d14" stroke-width="7" stroke-linecap="round"/>
  <path d="M70 148a16 16 0 0 1 24 0M61 140a28 28 0 0 1 42 0M52 132a40 40 0 0 1 60 0" fill="none" stroke="#b3521f" stroke-width="7" stroke-linecap="round"/>
  <circle cx="82" cy="162" r="6" fill="#8a3d14"/>
  <circle cx="82" cy="158" r="6" fill="#b3521f"/>
  <!-- wheelie bin -->
  <path d="M248 98v-7h20v7" fill="none" stroke="#0a4c3a" stroke-width="4" stroke-linecap="round" stroke-linejoin="round"/>
  <path d="M238 113h40l-4 50h-32z" fill="#0a4c3a"/>
  <path d="M238 108h40l-4 50h-32z" fill="#0f6b52"/>
  <path d="M252 120v28M264 120v28" stroke="#0a4c3a" stroke-width="3" stroke-linecap="round"/>
  <rect x="234" y="102" width="48" height="12" rx="4" fill="#0a4c3a"/>
  <rect x="234" y="97" width="48" height="12" rx="4" fill="#0f6b52"/>
  <circle cx="244" cy="160" r="7" fill="#2c2118"/>
  <circle cx="244" cy="160" r="3" fill="#6b5a48"/>
  <circle cx="272" cy="160" r="7" fill="#2c2118"/>
  <circle cx="272" cy="160" r="3" fill="#6b5a48"/>
</svg>
