<svg xmlns="http://www.w3.org/2000/svg" viewBox="0 0 320 200" width="320" height="200">
  <rect width="320" height="200" rx="20" fill="#f3ece1"/>
  <!-- accents -->
  <circle cx="40" cy="44" r="5" fill="#f3b45f"/>
  <circle cx="284" cy="48" r="5" fill="#cfe7dd"/>
  <circle cx="262" cy="28" r="3" fill="#f3b45f"/>
  <!-- ground -->
  <ellipse cx="160" cy="168" rx="124" ry="12" fill="#e4d8c8"/>
  <!-- small house -->
  <rect x="50" y="123" width="56" height="42" rx="5" fill="#0a4c3a"/>
  <rect x="50" y="118" width="56" height="42" rx="5" fill="#0f6b52"/>
  <path d="M42 126 78 96l36 30z" fill="#8a3d14"/>
  <path d="M42 122 78 92l36 30z" fill="#b3521f"/>
  <rect x="56" y="128" width="11" height="11" rx="2" fill="#fffaf3"/>
  <rect x="89" y="128" width="11" height="11" rx="2" fill="#fffaf3"/>
  <rect x="71" y="136" width="14" height="24" rx="3" fill="#f3b45f"/>
  <!-- form document -->
  <rect x="128" y="54" width="68" height="110" rx="8" fill="#e4d8c8"/>
  <rect x="128" y="48" width="68" height="110" rx="8" fill="#fffaf3"/>
  <rect x="140" y="60" width="30" height="8" rx="4" fill="#f3b45f"/>
  <path d="M141 80h44M141 92h44M141 104h30M141 116h40" stroke="#e4d8c8" stroke-width="4" stroke-linecap="round"/>
  <path d="M140 144q4-7 8 0t8 0" fill="none" stroke="#6b5a48" stroke-width="3" stroke-linecap="round"/>
  <!-- round stamp -->
  <circle cx="177" cy="138" r="14" fill="none" stroke="#b3521f" stroke-width="4"/>
  <path d="M170 138l5 5 9-10" fill="none" stroke="#b3521f" stroke-width="4" stroke-linecap="round" stroke-linejoin="round"/>
  <!-- calendar -->
  <rect x="214" y="113" width="54" height="50" rx="6" fill="#e4d8c8"/>
  <rect x="214" y="108" width="54" height="50" rx="6" fill="#fffaf3"/>
  <path d="M214 122v-8a6 6 0 0 1 6-6h42a6 6 0 0 1 6 6v8z" fill="#0f6b52"/>
  <rect x="226" y="102" width="5" height="12" rx="2" fill="#6b5a48"/>
  <rect x="251" y="102" width="5" height="12" rx="2" fill="#6b5a48"/>
  <circle cx="227" cy="133" r="3" fill="#e4d8c8"/>
  <circle cx="241" cy="133" r="3" fill="#e4d8c8"/>
  <circle cx="255" cy="133" r="3" fill="#e4d8c8"/>
  <circle cx="227" cy="146" r="3" fill="#e4d8c8"/>
  <circle cx="241" cy="146" r="5" fill="#b3521f"/>
  <circle cx="255" cy="146" r="3" fill="#e4d8c8"/>
</svg>
