<svg xmlns="http://www.w3.org/2000/svg" viewBox="0 0 320 200" width="320" height="200">
  <rect width="320" height="200" rx="20" fill="#f3ece1"/>
  <circle cx="36" cy="44" r="6" fill="#cfe7dd"/>
  <circle cx="292" cy="36" r="5" fill="#f3b45f"/>
  <circle cx="58" cy="26" r="3" fill="#f3b45f"/>
  <ellipse cx="160" cy="172" rx="128" ry="12" fill="#e4d8c8"/>
  <!-- gold umbrella over the house -->
  <path d="M160 34v76" stroke="#6b5a48" stroke-width="4" stroke-linecap="round"/>
  <path d="M82 96a78 60 0 0 1 156 0z" fill="#f3b45f"/>
  <path d="M82 96a13 8 0 0 1 26 0 13 8 0 0 1 26 0 13 8 0 0 1 26 0 13 8 0 0 1 26 0 13 8 0 0 1 26 0 13 8 0 0 1 26 0" stroke="#c98f3e" stroke-width="4" fill="none"/>
  <path d="M160 38v58" stroke="#c98f3e" stroke-width="3"/>
  <!-- house -->
  <rect x="116" y="124" width="84" height="46" rx="6" fill="#0a4c3a"/>
  <rect x="116" y="118" width="84" height="46" rx="6" fill="#0f6b52"/>
  <path d="M110 120 158 100l48 20z" fill="#b3521f" stroke="#b3521f" stroke-width="5" stroke-linejoin="round"/>
  <rect x="126" y="128" width="18" height="14" rx="3" fill="#fffaf3"/>
  <rect x="150" y="138" width="16" height="26" rx="3" fill="#f3b45f"/>
  <!-- green shield with a tick -->
  <path d="M214 106l30-10 30 10v26c0 20-14 32-30 40-16-8-30-20-30-40z" fill="#0a4c3a" transform="translate(0 4)"/>
  <path d="M214 106l30-10 30 10v26c0 20-14 32-30 40-16-8-30-20-30-40z" fill="#0f6b52"/>
  <path d="M231 132l9 9 17-19" stroke="#fffaf3" stroke-width="6" stroke-linecap="round" stroke-linejoin="round" fill="none"/>
</svg>
