<svg xmlns="http://www.w3.org/2000/svg" viewBox="0 0 320 200" width="320" height="200">
  <rect width="320" height="200" rx="20" fill="#f3ece1"/>
  <circle cx="36" cy="36" r="6" fill="#cfe7dd"/>
  <circle cx="296" cy="32" r="5" fill="#f3b45f"/>
  <circle cx="60" cy="54" r="3" fill="#f3b45f"/>
  <ellipse cx="170" cy="174" rx="130" ry="11" fill="#e4d8c8"/>
  <!-- new house behind -->
  <rect x="160" y="84" width="118" height="80" rx="6" fill="#0a4c3a"/>
  <rect x="160" y="78" width="118" height="80" rx="6" fill="#0f6b52"/>
  <path d="M152 80 219 38l67 42z" fill="#b3521f" stroke="#b3521f" stroke-width="6" stroke-linejoin="round"/>
  <rect x="174" y="92" width="24" height="20" rx="3" fill="#fffaf3"/>
  <rect x="240" y="92" width="24" height="20" rx="3" fill="#fffaf3"/>
  <rect x="208" y="112" width="22" height="46" rx="3" fill="#f3b45f"/>
  <!-- clipboard with the snag list -->
  <rect x="50" y="54" width="92" height="116" rx="9" fill="#c98f3e"/>
  <rect x="50" y="48" width="92" height="116" rx="9" fill="#f3b45f"/>
  <rect x="58" y="60" width="76" height="96" rx="5" fill="#fffaf3"/>
  <rect x="80" y="40" width="32" height="14" rx="5" fill="#6b5a48"/>
  <g stroke-linecap="round" stroke-linejoin="round" fill="none">
    <path d="M66 76l4 4 7-8M66 98l4 4 7-8" stroke="#0f6b52" stroke-width="3"/>
    <path d="M67 118l8 8M75 118l-8 8" stroke="#b3521f" stroke-width="3"/>
    <path d="M66 142l4 4 7-8" stroke="#0f6b52" stroke-width="3"/>
  </g>
  <rect x="84" y="75" width="40" height="6" rx="3" fill="#e4d8c8"/>
  <rect x="84" y="97" width="34" height="6" rx="3" fill="#e4d8c8"/>
  <rect x="84" y="119" width="42" height="6" rx="3" fill="#e4d8c8"/>
  <rect x="84" y="141" width="30" height="6" rx="3" fill="#e4d8c8"/>
  <!-- spirit level -->
  <rect x="120" y="158" width="152" height="16" rx="5" fill="#c98f3e"/>
  <rect x="120" y="154" width="152" height="16" rx="5" fill="#f3b45f"/>
  <rect x="182" y="157" width="28" height="10" rx="5" fill="#cfe7dd"/>
  <circle cx="196" cy="162" r="3.5" fill="#fffaf3"/>
  <path d="M190 157v10M202 157v10" stroke="#0f6b52" stroke-width="1.5"/>
</svg>
